<svg xmlns="http://www.w3.org/2000/svg" viewBox="0 0 64 64" fill="none" role="img" aria-label="Voyari">
  <defs>
    <linearGradient id="vg" x1="0" y1="0" x2="64" y2="64" gradientUnits="userSpaceOnUse">
      <stop offset="0%" stop-color="#F3D98B"/>
      <stop offset="50%" stop-color="#D4A853"/>
      <stop offset="100%" stop-color="#B8862F"/>
    </linearGradient>
    <radialGradient id="vgGlow" cx="50%" cy="50%" r="50%">
      <stop offset="0%" stop-color="#E8C97A" stop-opacity="0.55"/>
      <stop offset="70%" stop-color="#D4A853" stop-opacity="0.0"/>
    </radialGradient>
  </defs>
  <circle cx="32" cy="32" r="30" fill="url(#vgGlow)"/>
  <circle cx="32" cy="32" r="28" stroke="url(#vg)" stroke-width="1.6" opacity="0.95"/>
  <circle cx="32" cy="32" r="20" stroke="url(#vg)" stroke-width="0.7" opacity="0.45"/>
  <g opacity="0.95">
    <path d="M32 6 L36 30 L32 28 L28 30 Z" fill="url(#vg)"/>
    <path d="M32 58 L28 34 L32 36 L36 34 Z" fill="url(#vg)" opacity="0.45"/>
    <path d="M6 32 L30 28 L28 32 L30 36 Z" fill="url(#vg)" opacity="0.55"/>
    <path d="M58 32 L34 36 L36 32 L34 28 Z" fill="url(#vg)" opacity="0.55"/>
  </g>
  <path d="M22 24 L32 44 L42 24" stroke="#0A0E1A" stroke-width="3.4" stroke-linecap="round" stroke-linejoin="round" fill="none"/>
  <path d="M22 24 L32 44 L42 24" stroke="url(#vg)" stroke-width="1.4" stroke-linecap="round" stroke-linejoin="round" fill="none" opacity="0.85"/>
  <circle cx="32" cy="32" r="2.2" fill="#0A0E1A" stroke="url(#vg)" stroke-width="0.8"/>
</svg>
